<svg width="16" height="16" viewBox="0 0 16 16" fill="none" xmlns="http://www.w3.org/2000/svg">
<path d="M13.5578 4.98784C12.7525 4.18261 11.6823 3.73955 10.545 3.73955H6.07469V2.88463C6.07469 2.61198 5.8877 2.50968 5.65696 2.65776L3.59946 3.9859C3.36968 4.13485 3.3716 4.37344 3.60437 4.5175L5.65302 5.78627C5.88384 5.93042 6.07469 5.82425 6.07469 5.55162V4.69967H10.546C12.3649 4.69967 13.845 6.1807 13.845 7.99863C13.845 8.30047 13.8051 8.59845 13.7252 8.88465C13.6541 9.14074 13.8041 9.40469 14.0602 9.47475C14.1031 9.48842 14.1458 9.49421 14.1887 9.49421C14.399 9.49421 14.5919 9.35403 14.6512 9.14275C14.7534 8.77176 14.8041 8.38707 14.8041 7.99957C14.8041 6.86231 14.3611 5.7912 13.5578 4.98784ZM12.7641 11.4816L10.7164 10.2128C10.4837 10.0688 10.2928 10.1739 10.2928 10.4475V11.2976H5.46707C3.64816 11.2976 2.16811 9.81754 2.16811 7.99865C2.16811 7.36183 2.35019 6.74353 2.69394 6.21087C2.83807 5.98785 2.77373 5.68994 2.55175 5.54583C2.32873 5.40268 2.03082 5.46694 1.88767 5.6889C1.4427 6.37735 1.20703 7.17677 1.20703 7.99959C1.20703 9.13786 1.65009 10.207 2.45435 11.0113C3.25868 11.8166 4.3288 12.2596 5.46707 12.2596H10.2938V13.1146C10.2938 13.3882 10.4818 13.4904 10.7115 13.3414L12.769 12.0123C12.9988 11.8643 12.9969 11.6257 12.7641 11.4816Z" fill="white"/>
<path d="M9.55241 5.94306C9.55241 6.04106 9.51974 6.11806 9.45441 6.17406C9.39374 6.23473 9.31907 6.26506 9.23041 6.26506H7.27741C7.21674 6.26506 7.18641 6.2954 7.18641 6.35606V7.09806C7.18641 7.1634 7.21674 7.19606 7.27741 7.19606H8.62841C8.80107 7.19606 8.95507 7.23806 9.09041 7.32206C9.23041 7.40606 9.34241 7.51806 9.42641 7.65806C9.51041 7.7934 9.55241 7.9474 9.55241 8.12006V9.24006C9.55241 9.40806 9.51041 9.56206 9.42641 9.70206C9.34241 9.84206 9.23041 9.95406 9.09041 10.0381C8.95041 10.1221 8.79641 10.1641 8.62841 10.1641H7.28441C7.11641 10.1641 6.96007 10.1221 6.81541 10.0381C6.67541 9.95406 6.56341 9.84206 6.47941 9.70206C6.39541 9.56206 6.35341 9.40806 6.35341 9.24006V8.73606C6.35341 8.6474 6.38374 8.57273 6.44441 8.51206C6.50974 8.44673 6.58674 8.41406 6.67541 8.41406H6.87141C6.95541 8.41406 7.02774 8.44673 7.08841 8.51206C7.15374 8.57273 7.18641 8.6474 7.18641 8.73606V9.24006C7.18641 9.2634 7.19574 9.28673 7.21441 9.31006C7.23774 9.32873 7.26107 9.33806 7.28441 9.33806H8.62841C8.65174 9.33806 8.67274 9.32873 8.69141 9.31006C8.71007 9.28673 8.71941 9.2634 8.71941 9.24006V8.12006C8.71941 8.09673 8.71007 8.07573 8.69141 8.05706C8.67274 8.03373 8.65174 8.02206 8.62841 8.02206H6.67541C6.58207 8.02206 6.50741 7.9894 6.45141 7.92406C6.38607 7.86806 6.35341 7.7934 6.35341 7.70006V5.75406C6.35341 5.66073 6.38374 5.58373 6.44441 5.52306C6.50974 5.4624 6.58674 5.43206 6.67541 5.43206H9.23041C9.31907 5.43206 9.39374 5.4624 9.45441 5.52306C9.51974 5.58373 9.55241 5.66073 9.55241 5.75406V5.94306Z" fill="white"/>
</svg>
