<svg width="16" height="16" viewBox="0 0 16 16" fill="none" xmlns="http://www.w3.org/2000/svg">
<path d="M7.37344 4L7.36644 4.005L4.49044 6.701C4.37928 6.80507 4.23271 6.86298 4.08044 6.863H3.11044C3.10675 6.86293 3.10306 6.86326 3.09944 6.864V9.098C3.10302 9.09908 3.10671 9.09975 3.11044 9.1H4.08044C4.23271 9.10002 4.37928 9.15793 4.49044 9.262L7.36644 11.958C7.36848 11.96 7.37084 11.9617 7.37344 11.963L7.37744 11.964C7.38244 11.965 7.39044 11.964 7.39944 11.962V4C7.39233 3.9978 7.38483 3.99711 7.37744 3.998C7.37602 3.99849 7.37468 3.99916 7.37344 4ZM7.83944 2.883C8.24144 3.039 8.59944 3.428 8.59944 3.972V11.991C8.59944 12.535 8.24144 12.923 7.83944 13.079C7.43944 13.235 6.92744 13.191 6.54544 12.834L3.84244 10.3H3.11044C2.80044 10.3 2.49744 10.185 2.26844 9.97C2.15226 9.86236 2.05947 9.73198 1.99582 9.58696C1.93216 9.44194 1.89902 9.28537 1.89844 9.127V6.836C1.89844 6.512 2.03744 6.209 2.26844 5.993C2.49844 5.778 2.80144 5.663 3.11044 5.663H3.84244L6.54544 3.129C6.71574 2.96975 6.92774 2.8621 7.1568 2.81855C7.38586 2.77501 7.62258 2.79735 7.83944 2.883ZM11.4504 3.926C11.5043 3.86834 11.569 3.82187 11.6408 3.78925C11.7127 3.75662 11.7903 3.73849 11.8691 3.73589C11.948 3.73329 12.0266 3.74627 12.1004 3.77409C12.1743 3.80191 12.2419 3.84401 12.2994 3.898C12.8642 4.42487 13.3168 5.0602 13.6304 5.766C13.9404 6.467 14.1004 7.22 14.1004 7.981C14.1004 8.743 13.9404 9.496 13.6304 10.197C13.3204 10.897 12.8674 11.532 12.3004 12.064C12.2433 12.1193 12.1756 12.1627 12.1015 12.1917C12.0274 12.2206 11.9483 12.2345 11.8687 12.2326C11.7892 12.2307 11.7108 12.2129 11.6382 12.1804C11.5656 12.1479 11.5002 12.1013 11.4457 12.0433C11.3913 11.9853 11.3489 11.917 11.3211 11.8425C11.2933 11.7679 11.2806 11.6886 11.2837 11.6091C11.2869 11.5296 11.3058 11.4515 11.3394 11.3794C11.373 11.3073 11.4206 11.2426 11.4794 11.189C11.9324 10.764 12.2894 10.261 12.5324 9.712C12.7754 9.162 12.9004 8.574 12.9004 7.982C12.9004 7.389 12.7754 6.801 12.5324 6.252C12.2843 5.69357 11.9262 5.19089 11.4794 4.774C11.3633 4.66526 11.2951 4.51483 11.2898 4.3558C11.2846 4.19677 11.3427 4.04217 11.4514 3.926H11.4504ZM9.72244 5.546C9.83118 5.42985 9.98161 5.36164 10.1406 5.35639C10.2997 5.35114 10.4543 5.40927 10.5704 5.518C10.9114 5.838 11.1844 6.22 11.3714 6.643C11.5579 7.06461 11.6541 7.52052 11.6541 7.9815C11.6541 8.44249 11.5579 8.89839 11.3714 9.32C11.1827 9.74502 10.9103 10.1276 10.5704 10.445C10.5131 10.5 10.4455 10.5431 10.3714 10.5717C10.2973 10.6004 10.2183 10.614 10.1389 10.6119C10.0595 10.6098 9.98134 10.5919 9.9089 10.5593C9.83647 10.5268 9.77122 10.4801 9.71694 10.4221C9.66266 10.3642 9.62044 10.296 9.59272 10.2216C9.56499 10.1471 9.55232 10.0679 9.55544 9.98857C9.55855 9.90921 9.57739 9.83126 9.61087 9.75924C9.64434 9.68721 9.69178 9.62255 9.75044 9.569C9.97644 9.357 10.1534 9.107 10.2744 8.835C10.3935 8.5662 10.455 8.27548 10.455 7.9815C10.455 7.68753 10.3935 7.3968 10.2744 7.128C10.1509 6.8506 9.97266 6.60096 9.75044 6.394C9.63428 6.28526 9.56608 6.13483 9.56083 5.9758C9.55558 5.81677 9.61371 5.66217 9.72244 5.546Z" fill="white"/>
</svg>
