<svg width="24" height="24" viewBox="0 0 24 24" fill="none" xmlns="http://www.w3.org/2000/svg">
<path d="M11.9991 4.53053C13.1416 3.50773 14.6326 2.9614 16.1655 3.0038C17.6984 3.04621 19.1568 3.67413 20.2411 4.75853C21.3244 5.84172 21.9524 7.29827 21.9963 8.82961C22.0402 10.361 21.4966 11.8511 20.4771 12.9945L12.3509 21.1322C12.1556 21.3278 11.8386 21.3278 11.6433 21.1321L3.51907 12.9945C2.49833 11.8505 1.95427 10.3591 1.99861 8.82651C2.04294 7.29394 2.67229 5.83648 3.75746 4.75336C4.84263 3.67023 6.30128 3.04363 7.83393 3.00219C9.36659 2.96076 10.857 3.50762 11.9991 4.53053ZM18.8251 6.17153C18.1027 5.44965 17.1314 5.03161 16.1105 5.00316C15.0896 4.97471 14.0966 5.33801 13.3351 6.01853L12.3337 6.91709C12.1439 7.08748 11.8562 7.0876 11.6662 6.91735L10.6641 6.01953C9.90574 5.34142 8.91753 4.97772 7.90054 5.00245C6.88354 5.02717 5.91417 5.43846 5.18969 6.15262C4.46521 6.86678 4.04006 7.83015 4.00074 8.84669C3.96143 9.86322 4.31091 10.8565 4.97807 11.6245L11.6443 18.3012C11.8396 18.4968 12.1566 18.4968 12.3519 18.3012L19.0181 11.6255C19.6824 10.8609 20.032 9.87277 19.9961 8.8605C19.9603 7.84823 19.5418 6.88725 18.8251 6.17153Z" fill="#A2A2A2"/>
</svg>
