<svg width="16" height="16" viewBox="0 0 16 16" fill="none" xmlns="http://www.w3.org/2000/svg">
<path d="M4.62892 13.7422C4.54431 13.7011 4.47296 13.637 4.42298 13.5574C4.373 13.4777 4.34642 13.3856 4.34625 13.2915V11.9462H2.11558C1.92714 11.9449 1.74683 11.8693 1.61396 11.7356C1.48108 11.602 1.40642 11.4213 1.40625 11.2328V2.92684C1.40642 2.73852 1.48113 2.55793 1.61404 2.42452C1.74695 2.29111 1.92727 2.21572 2.11558 2.21484H13.8822C14.0715 2.21484 14.253 2.28973 14.3871 2.42314C14.5213 2.55655 14.5972 2.73764 14.5982 2.92684V8.46018H13.5982V3.21018L2.40558 3.21418V10.9422H4.84825C4.9139 10.9422 4.9789 10.9552 5.0395 10.9804C5.1001 11.0057 5.15511 11.0426 5.20134 11.0893C5.24757 11.1359 5.28412 11.1912 5.30888 11.252C5.33364 11.3128 5.34611 11.3779 5.34558 11.4435V12.2675L6.91492 11.0502C7.00208 10.9826 7.10929 10.946 7.21958 10.9462H9.21958V11.9462H7.39292L5.15358 13.6842C5.06679 13.7529 4.95963 13.7909 4.84892 13.7922C4.77284 13.7916 4.69779 13.7745 4.62892 13.7422ZM13.0689 13.2915L12.8409 12.3775H11.6663L11.4342 13.2915H10.4669L11.6962 9.32151H12.8409L14.0716 13.2915H13.0689ZM11.9323 11.3055L11.8476 11.6388H12.6602L12.5716 11.3055C12.4676 10.9122 12.3669 10.4342 12.2589 10.0308H12.2369C12.1376 10.4468 12.0323 10.9128 11.9323 11.3062V11.3055ZM7.51558 9.89951V8.06084H6.36292V8.37351H5.48425V5.22351H7.51558V4.19484H8.44025V5.22351H10.5142V8.34618H9.59625V8.06084H8.44025V9.89951H7.51558ZM8.44025 7.20551H9.59625V6.08284H8.44025V7.20551ZM6.36358 7.20551H7.51625V6.08284H6.36358V7.20551Z" fill="white"/>
</svg>
