<svg width="16" height="16" viewBox="0 0 16 16" fill="none" xmlns="http://www.w3.org/2000/svg">
<path d="M13.5578 4.98784C12.7525 4.18261 11.6823 3.73955 10.545 3.73955H6.07469V2.88463C6.07469 2.61198 5.8877 2.50968 5.65696 2.65776L3.59946 3.9859C3.36968 4.13485 3.3716 4.37344 3.60437 4.5175L5.65302 5.78627C5.88384 5.93042 6.07469 5.82425 6.07469 5.55162V4.69967H10.546C12.3649 4.69967 13.845 6.1807 13.845 7.99863C13.845 8.30047 13.8051 8.59845 13.7252 8.88465C13.6541 9.14074 13.8041 9.40469 14.0602 9.47475C14.1031 9.48842 14.1458 9.49421 14.1887 9.49421C14.399 9.49421 14.5919 9.35403 14.6512 9.14275C14.7534 8.77176 14.8041 8.38707 14.8041 7.99957C14.8041 6.86231 14.3611 5.7912 13.5578 4.98784ZM12.7641 11.4816L10.7164 10.2128C10.4837 10.0688 10.2928 10.1739 10.2928 10.4475V11.2976H5.46707C3.64816 11.2976 2.16811 9.81754 2.16811 7.99865C2.16811 7.36183 2.35019 6.74353 2.69394 6.21087C2.83807 5.98785 2.77373 5.68994 2.55175 5.54583C2.32873 5.40268 2.03082 5.46694 1.88767 5.6889C1.4427 6.37735 1.20703 7.17677 1.20703 7.99959C1.20703 9.13786 1.65009 10.207 2.45435 11.0113C3.25868 11.8166 4.3288 12.2596 5.46707 12.2596H10.2938V13.1146C10.2938 13.3882 10.4818 13.4904 10.7115 13.3414L12.769 12.0123C12.9988 11.8643 12.9969 11.6257 12.7641 11.4816Z" fill="white"/>
<path d="M8.653 9.84206C8.653 9.93073 8.62267 10.0077 8.562 10.0731C8.506 10.1337 8.43367 10.1641 8.345 10.1641H8.149C8.06033 10.1641 7.98333 10.1337 7.918 10.0731C7.85733 10.0077 7.827 9.93073 7.827 9.84206V6.65706C7.827 6.6384 7.81767 6.62673 7.799 6.62206C7.785 6.61273 7.77333 6.61273 7.764 6.62206L7.659 6.72706C7.603 6.7924 7.52833 6.82506 7.435 6.82506C7.38833 6.82506 7.34633 6.81573 7.309 6.79706C7.24833 6.77373 7.20167 6.73406 7.169 6.67806C7.13633 6.62206 7.12 6.56373 7.12 6.50306V6.23006C7.12 6.1414 7.15033 6.0644 7.211 5.99906L7.687 5.53006C7.71967 5.50206 7.75467 5.47873 7.792 5.46006C7.82933 5.4414 7.87133 5.43206 7.918 5.43206H8.345C8.43367 5.43206 8.506 5.4624 8.562 5.52306C8.62267 5.58373 8.653 5.66073 8.653 5.75406V9.84206Z" fill="white"/>
</svg>
