<svg width="24" height="24" viewBox="0 0 24 24" fill="none" xmlns="http://www.w3.org/2000/svg">
<path d="M11.9991 4.53053C13.1416 3.50773 14.6326 2.9614 16.1655 3.0038C17.6984 3.04621 19.1568 3.67413 20.2411 4.75853C21.3244 5.84172 21.9524 7.29827 21.9963 8.82961C22.0402 10.361 21.4966 11.8511 20.4771 12.9945L12.3509 21.1322C12.1556 21.3278 11.8386 21.3278 11.6433 21.1321L3.51907 12.9945C2.49833 11.8505 1.95427 10.3591 1.99861 8.82651C2.04294 7.29394 2.67229 5.83648 3.75746 4.75336C4.84263 3.67023 6.30128 3.04363 7.83393 3.00219C9.36659 2.96076 10.857 3.50762 11.9991 4.53053Z" fill="#FFD042"/>
</svg>
