<svg width="16" height="16" viewBox="0 0 16 16" fill="none" xmlns="http://www.w3.org/2000/svg">
<path d="M13.5578 4.98784C12.7525 4.18261 11.6823 3.73955 10.545 3.73955H6.07469V2.88463C6.07469 2.61198 5.8877 2.50968 5.65696 2.65776L3.59946 3.9859C3.36968 4.13485 3.3716 4.37344 3.60437 4.5175L5.65302 5.78627C5.88384 5.93042 6.07469 5.82425 6.07469 5.55162V4.69967H10.546C12.3649 4.69967 13.845 6.1807 13.845 7.99863C13.845 8.30047 13.8051 8.59845 13.7252 8.88465C13.6541 9.14074 13.8041 9.40469 14.0602 9.47475C14.1031 9.48842 14.1458 9.49421 14.1887 9.49421C14.399 9.49421 14.5919 9.35403 14.6512 9.14275C14.7534 8.77176 14.8041 8.38707 14.8041 7.99957C14.8041 6.86231 14.3611 5.7912 13.5578 4.98784ZM12.7641 11.4816L10.7164 10.2128C10.4837 10.0688 10.2928 10.1739 10.2928 10.4475V11.2976H5.46707C3.64816 11.2976 2.16811 9.81754 2.16811 7.99865C2.16811 7.36183 2.35019 6.74353 2.69394 6.21087C2.83807 5.98785 2.77373 5.68994 2.55175 5.54583C2.32873 5.40268 2.03082 5.46694 1.88767 5.6889C1.4427 6.37735 1.20703 7.17677 1.20703 7.99959C1.20703 9.13786 1.65009 10.207 2.45435 11.0113C3.25868 11.8166 4.3288 12.2596 5.46707 12.2596H10.2938V13.1146C10.2938 13.3882 10.4818 13.4904 10.7115 13.3414L12.769 12.0123C12.9988 11.8643 12.9969 11.6257 12.7641 11.4816Z" fill="white"/>
<path d="M6.228 9.26C6.244 9.32133 6.23467 9.37733 6.2 9.428C6.16533 9.476 6.116 9.5 6.052 9.5H5.936C5.89867 9.5 5.86267 9.488 5.828 9.464C5.796 9.44 5.77333 9.41067 5.76 9.376L5.608 8.916C5.59733 8.88133 5.57467 8.864 5.54 8.864H4.856C4.82133 8.864 4.79867 8.88133 4.788 8.916L4.636 9.376C4.62267 9.41067 4.6 9.44 4.568 9.464C4.536 9.488 4.5 9.5 4.46 9.5H4.344C4.28 9.5 4.23067 9.476 4.196 9.428C4.15867 9.37467 4.15067 9.31867 4.172 9.26L4.948 6.92C4.96133 6.88267 4.98267 6.85333 5.012 6.832C5.044 6.808 5.07867 6.796 5.116 6.796H5.28C5.31733 6.796 5.352 6.808 5.384 6.832C5.416 6.85333 5.43733 6.88267 5.448 6.92L6.228 9.26ZM5.42 8.34L5.22 7.728C5.20667 7.70933 5.192 7.70933 5.176 7.728L4.976 8.34C4.97067 8.35333 4.972 8.36533 4.98 8.376C4.988 8.38667 4.99867 8.392 5.012 8.392H5.384C5.39733 8.392 5.408 8.38667 5.416 8.376C5.424 8.36533 5.42533 8.35333 5.42 8.34ZM8.33453 8.972C8.33453 9.068 8.31053 9.156 8.26253 9.236C8.21453 9.316 8.15053 9.38 8.07053 9.428C7.99053 9.476 7.90253 9.5 7.80653 9.5H7.08653C6.99053 9.5 6.9012 9.476 6.81853 9.428C6.73853 9.38 6.67453 9.316 6.62653 9.236C6.57853 9.156 6.55453 9.068 6.55453 8.972V6.98C6.55453 6.92667 6.57186 6.88267 6.60653 6.848C6.64386 6.81333 6.68786 6.796 6.73853 6.796H6.85053C6.9012 6.796 6.94386 6.81333 6.97853 6.848C7.01586 6.88267 7.03453 6.92667 7.03453 6.98V8.972C7.03453 8.98533 7.03986 8.99867 7.05053 9.012C7.0612 9.02267 7.0732 9.028 7.08653 9.028H7.80653C7.81986 9.028 7.83186 9.02267 7.84253 9.012C7.8532 8.99867 7.85853 8.98533 7.85853 8.972V6.98C7.85853 6.92667 7.87586 6.88267 7.91053 6.848C7.94786 6.81333 7.99186 6.796 8.04253 6.796H8.15053C8.20386 6.796 8.24786 6.81333 8.28253 6.848C8.3172 6.88267 8.33453 6.92667 8.33453 6.98V8.972ZM10.444 7.088C10.444 7.13867 10.4267 7.18267 10.392 7.22C10.3573 7.25467 10.3133 7.272 10.26 7.272H9.84C9.80533 7.272 9.788 7.28933 9.788 7.324V9.316C9.788 9.36667 9.76933 9.41067 9.732 9.448C9.69733 9.48267 9.65467 9.5 9.604 9.5H9.5C9.44933 9.5 9.40533 9.48267 9.368 9.448C9.33333 9.41067 9.316 9.36667 9.316 9.316V7.324C9.316 7.28933 9.29867 7.272 9.264 7.272H8.84C8.78933 7.272 8.74533 7.25467 8.708 7.22C8.67333 7.18267 8.656 7.13867 8.656 7.088V6.98C8.656 6.92667 8.67333 6.88267 8.708 6.848C8.74533 6.81333 8.78933 6.796 8.84 6.796H10.26C10.3133 6.796 10.3573 6.81333 10.392 6.848C10.4267 6.88267 10.444 6.92667 10.444 6.98V7.088ZM12.5975 8.972C12.5975 9.068 12.5735 9.156 12.5255 9.236C12.4775 9.316 12.4135 9.38 12.3335 9.428C12.2535 9.476 12.1655 9.5 12.0695 9.5H11.3015C11.2055 9.5 11.1161 9.476 11.0335 9.428C10.9535 9.38 10.8895 9.316 10.8415 9.236C10.7935 9.156 10.7695 9.068 10.7695 8.972V7.328C10.7695 7.22933 10.7935 7.14 10.8415 7.06C10.8895 6.98 10.9535 6.916 11.0335 6.868C11.1161 6.82 11.2055 6.796 11.3015 6.796H12.0695C12.1655 6.796 12.2535 6.82 12.3335 6.868C12.4135 6.916 12.4775 6.98 12.5255 7.06C12.5735 7.14 12.5975 7.22933 12.5975 7.328V8.972ZM12.1215 8.972V7.328C12.1215 7.29067 12.1041 7.272 12.0695 7.272H11.3015C11.2881 7.272 11.2748 7.27733 11.2615 7.288C11.2508 7.29867 11.2455 7.312 11.2455 7.328V8.972C11.2455 8.98533 11.2508 8.99867 11.2615 9.012C11.2748 9.02267 11.2881 9.028 11.3015 9.028H12.0695C12.0828 9.028 12.0948 9.02267 12.1055 9.012C12.1161 8.99867 12.1215 8.98533 12.1215 8.972Z" fill="white"/>
<path d="M13.0039 5.5L2.53125 10.6615" stroke="white"/>
</svg>
