<svg width="28" height="28" viewBox="0 0 28 28" fill="none" xmlns="http://www.w3.org/2000/svg">
<rect width="28" height="28" rx="14" fill="white" fill-opacity="0.2"/>
<path d="M13.9987 8V20C11.6654 20 9.93153 16.9464 9.93153 16.9464H7.9987C7.63051 16.9464 7.33203 16.6479 7.33203 16.2797V11.6703C7.33203 11.3021 7.63051 11.0036 7.9987 11.0036H9.93153C9.93153 11.0036 11.6654 8 13.9987 8Z" stroke="white" stroke-linejoin="round"/>
<path d="M16.6641 11.0039C16.8718 11.1894 17.0601 11.3971 17.2254 11.6235C17.7103 12.2874 17.9974 13.1113 17.9974 14.0039C17.9974 14.8887 17.7152 15.7061 17.238 16.367C17.0697 16.6001 16.8771 16.8137 16.6641 17.0039" stroke="white" stroke-linecap="round" stroke-linejoin="round"/>
<path d="M17.4102 19.7225C19.3594 18.5591 20.6649 16.429 20.6649 13.994C20.6649 11.5968 19.3996 9.49513 17.5005 8.32031" stroke="white" stroke-linecap="round"/>
</svg>
